<svg xmlns="http://www.w3.org/2000/svg" xmlns:xlink="http://www.w3.org/1999/xlink" width="120" zoomAndPan="magnify" viewBox="0 0 90 37.5" height="50" preserveAspectRatio="xMidYMid meet" version="1.0"><defs><g/></defs><g fill="#545454" fill-opacity="1"><g transform="translate(30.57714, 23.314145)"><g><path d="M 0 0 L 0 -6.546875 L 1.3125 -6.546875 L 1.3125 -5.234375 L 5.234375 -5.234375 L 5.234375 -6.546875 L 6.546875 -6.546875 L 6.546875 0 L 5.234375 0 L 5.234375 -3.9375 L 1.3125 -3.9375 L 1.3125 0 Z M 3.9375 -6.546875 L 3.9375 -9.171875 L 5.234375 -9.171875 L 5.234375 -6.546875 Z M 1.3125 -9.171875 L 2.625 -9.171875 L 2.625 -6.546875 L 1.3125 -6.546875 Z M 2.625 -10.484375 L 3.9375 -10.484375 L 3.9375 -9.171875 L 2.625 -9.171875 Z M 2.625 -10.484375 "/></g></g></g><g fill="#545454" fill-opacity="1"><g transform="translate(41.059777, 23.314145)"><g><path d="M 0 0 L 0 -10.484375 L 1.3125 -10.484375 L 1.3125 -1.3125 L 5.234375 -1.3125 L 5.234375 0 Z M 0 0 "/></g></g></g><g fill="#545454" fill-opacity="1"><g transform="translate(50.232084, 23.314145)"><g><path d="M 0 0 L 0 -10.484375 L 1.3125 -10.484375 L 1.3125 -1.3125 L 5.234375 -1.3125 L 5.234375 0 Z M 0 0 "/></g></g></g></svg>