<svg xmlns="http://www.w3.org/2000/svg" xmlns:xlink="http://www.w3.org/1999/xlink" width="120" zoomAndPan="magnify" viewBox="0 0 90 37.5" height="50" preserveAspectRatio="xMidYMid meet" version="1.0"><defs><g/></defs><g fill="#ffffff" fill-opacity="1"><g transform="translate(6.219164, 22.690874)"><g><path d="M 0 -7.984375 L 0 -9.125 L 5.703125 -9.125 L 5.703125 -7.984375 L 3.421875 -7.984375 L 3.421875 0 L 2.28125 0 L 2.28125 -7.984375 Z M 0 -7.984375 "/></g></g></g><g fill="#ffffff" fill-opacity="1"><g transform="translate(15.343709, 22.690874)"><g><path d="M 0 1.15625 L 0 0 L 1.140625 0 L 1.140625 1.15625 Z M 0 -2.28125 L 0 -5.703125 L 1.140625 -5.703125 L 1.140625 -2.28125 Z M 1.140625 2.3125 L 1.140625 1.15625 L 3.421875 1.15625 L 3.421875 2.3125 Z M 1.140625 -1.140625 L 1.140625 -2.28125 L 2.28125 -2.28125 L 2.28125 -1.140625 Z M 2.28125 0 L 2.28125 -1.140625 L 3.421875 -1.140625 L 3.421875 -5.703125 L 4.5625 -5.703125 L 4.5625 1.15625 L 3.421875 1.15625 L 3.421875 0 Z M 2.28125 0 "/></g></g></g><g fill="#ffffff" fill-opacity="1"><g transform="translate(23.327687, 22.690874)"><g><path d="M 0 2.3125 L 0 -5.703125 L 3.421875 -5.703125 L 3.421875 -4.5625 L 1.140625 -4.5625 L 1.140625 -1.140625 L 3.421875 -1.140625 L 3.421875 0 L 1.140625 0 L 1.140625 2.3125 Z M 4.5625 -4.5625 L 4.5625 -1.140625 L 3.421875 -1.140625 L 3.421875 -4.5625 Z M 4.5625 -4.5625 "/></g></g></g><g fill="#ffffff" fill-opacity="1"><g transform="translate(31.311664, 22.690874)"><g><path d="M 0 -1.140625 L 0 -5.703125 L 1.140625 -5.703125 L 1.140625 -3.421875 L 3.421875 -3.421875 L 3.421875 -5.703125 L 4.5625 -5.703125 L 4.5625 -2.28125 L 1.140625 -2.28125 L 1.140625 -1.140625 Z M 1.140625 0 L 1.140625 -1.140625 L 3.421875 -1.140625 L 3.421875 0 Z M 1.140625 -6.84375 L 3.421875 -6.84375 L 3.421875 -5.703125 L 1.140625 -5.703125 Z M 1.140625 -6.84375 "/></g></g></g><g fill="#ffffff" fill-opacity="1"><g transform="translate(39.295641, 22.690874)"><g><path d="M 0 -4.5625 L 0 -7.984375 L 1.140625 -7.984375 L 1.140625 -4.5625 Z M 0 -1.140625 L 0 -2.28125 L 1.140625 -2.28125 L 1.140625 -1.140625 Z M 1.140625 -3.421875 L 1.140625 -4.5625 L 3.421875 -4.5625 L 3.421875 -3.421875 Z M 1.140625 0 L 1.140625 -1.140625 L 3.421875 -1.140625 L 3.421875 0 Z M 3.421875 -6.84375 L 3.421875 -7.984375 L 4.5625 -7.984375 L 4.5625 -6.84375 Z M 1.140625 -9.125 L 3.421875 -9.125 L 3.421875 -7.984375 L 1.140625 -7.984375 Z M 4.5625 -3.421875 L 4.5625 -1.140625 L 3.421875 -1.140625 L 3.421875 -3.421875 Z M 4.5625 -3.421875 "/></g></g></g><g fill="#ffffff" fill-opacity="1"><g transform="translate(47.279619, 22.690874)"><g><path d="M 0 -1.140625 L 0 -4.5625 L 1.140625 -4.5625 L 1.140625 -1.140625 Z M 1.140625 0 L 1.140625 -1.140625 L 3.421875 -1.140625 L 3.421875 0 Z M 3.421875 -3.421875 L 3.421875 -4.5625 L 4.5625 -4.5625 L 4.5625 -3.421875 Z M 1.140625 -5.703125 L 3.421875 -5.703125 L 3.421875 -4.5625 L 1.140625 -4.5625 Z M 3.421875 -2.28125 L 4.5625 -2.28125 L 4.5625 -1.140625 L 3.421875 -1.140625 Z M 3.421875 -2.28125 "/></g></g></g><g fill="#ffffff" fill-opacity="1"><g transform="translate(55.263596, 22.690874)"><g><path d="M 0 0 L 0 -5.703125 L 1.140625 -5.703125 L 1.140625 -4.5625 L 2.28125 -4.5625 L 2.28125 -3.421875 L 1.140625 -3.421875 L 1.140625 0 Z M 2.28125 -5.703125 L 4.5625 -5.703125 L 4.5625 -4.5625 L 2.28125 -4.5625 Z M 2.28125 -5.703125 "/></g></g></g><g fill="#ffffff" fill-opacity="1"><g transform="translate(63.247573, 22.690874)"><g><path d="M 0 -5.703125 L 0 -6.84375 L 1.140625 -6.84375 L 1.140625 -5.703125 Z M 0 0 L 0 -4.5625 L 1.140625 -4.5625 L 1.140625 0 Z M 0 0 "/></g></g></g><g fill="#ffffff" fill-opacity="1"><g transform="translate(67.809846, 22.690874)"><g><path d="M 0 2.3125 L 0 -5.703125 L 3.421875 -5.703125 L 3.421875 -4.5625 L 1.140625 -4.5625 L 1.140625 -1.140625 L 3.421875 -1.140625 L 3.421875 0 L 1.140625 0 L 1.140625 2.3125 Z M 4.5625 -4.5625 L 4.5625 -1.140625 L 3.421875 -1.140625 L 3.421875 -4.5625 Z M 4.5625 -4.5625 "/></g></g></g><g fill="#ffffff" fill-opacity="1"><g transform="translate(75.793823, 22.690874)"><g><path d="M 0 -5.703125 L 0 -6.84375 L 1.140625 -6.84375 L 1.140625 -9.125 L 2.28125 -9.125 L 2.28125 -6.84375 L 3.421875 -6.84375 L 3.421875 -5.703125 L 2.28125 -5.703125 L 2.28125 -1.140625 L 1.140625 -1.140625 L 1.140625 -5.703125 Z M 2.28125 0 L 2.28125 -1.140625 L 3.421875 -1.140625 L 3.421875 0 Z M 3.421875 -2.28125 L 4.5625 -2.28125 L 4.5625 -1.140625 L 3.421875 -1.140625 Z M 3.421875 -2.28125 "/></g></g></g></svg>